<svg width="44" height="40" viewBox="0 0 44 40" fill="none" xmlns="http://www.w3.org/2000/svg">
<path d="M38.2142 20C38.2142 20.3315 38.0731 20.6495 37.822 20.8839C37.5708 21.1183 37.2301 21.25 36.8749 21.25H10.6434L20.4118 30.3657C20.5362 30.4818 20.6349 30.6197 20.7022 30.7714C20.7696 30.9231 20.8043 31.0858 20.8043 31.25C20.8043 31.4143 20.7696 31.5769 20.7022 31.7286C20.6349 31.8804 20.5362 32.0183 20.4118 32.1344C20.2873 32.2505 20.1396 32.3427 19.977 32.4055C19.8144 32.4684 19.6402 32.5007 19.4642 32.5007C19.2882 32.5007 19.114 32.4684 18.9514 32.4055C18.7888 32.3427 18.6411 32.2505 18.5167 32.1344L6.46311 20.8844C6.33858 20.7683 6.2398 20.6304 6.1724 20.4787C6.105 20.327 6.07031 20.1643 6.07031 20C6.07031 19.8358 6.105 19.6731 6.1724 19.5213C6.2398 19.3696 6.33858 19.2317 6.46311 19.1156L18.5167 7.86565C18.768 7.6311 19.1088 7.49933 19.4642 7.49933C19.8196 7.49933 20.1605 7.6311 20.4118 7.86565C20.6631 8.1002 20.8043 8.41832 20.8043 8.75002C20.8043 9.08173 20.6631 9.39985 20.4118 9.6344L10.6434 18.75H36.8749C37.2301 18.75 37.5708 18.8817 37.822 19.1161C38.0731 19.3506 38.2142 19.6685 38.2142 20Z" fill="#E7FDFD"/>
</svg>
